HIERARCHY
ROOT Hips
{
	OFFSET 52.431801 2.425726 86.562698
	CHANNELS 6 Xposition Yposition Zposition Xrotation Yrotation Zrotation
	JOINT spine
	{
		OFFSET 0.000000 -0.393701 6.846367
		CHANNELS 3 Xrotation Yrotation Zrotation
		JOINT spine1
		{
			OFFSET 0.000000 -0.000001 9.496208
			CHANNELS 3 Xrotation Yrotation Zrotation
			JOINT spine2
			{
				OFFSET 0.000000 -0.000002 9.099091
				CHANNELS 3 Xrotation Yrotation Zrotation
				JOINT Neck
				{
					OFFSET 0.000000 -1.113784 23.361206
					CHANNELS 3 Xrotation Yrotation Zrotation
					JOINT Head
					{
						OFFSET 0.000000 -0.000001 7.058014
						CHANNELS 3 Xrotation Yrotation Zrotation
						End Site
						{
							OFFSET 0.000000 5.634188 17.084396
						}
					}
				}
				JOINT RightShoulder
				{
					OFFSET -3.831360 0.533490 9.826309
					CHANNELS 3 Xrotation Yrotation Zrotation
					JOINT RightArm
					{
						OFFSET 0.000000 -0.000002 12.888107
						CHANNELS 3 Xrotation Yrotation Zrotation
						JOINT RightArmRoll
						{
							OFFSET 0.000000 -0.000001 6.506165
							CHANNELS 3 Xrotation Yrotation Zrotation
							JOINT RightForeArm
							{
								OFFSET 0.000000 -0.000003 18.950104
								CHANNELS 3 Xrotation Yrotation Zrotation
								JOINT RightForeArmRoll
								{
									OFFSET 0.000000 -0.000001 7.300919
									CHANNELS 3 Xrotation Yrotation Zrotation
									JOINT RightHand
									{
										OFFSET 0.000000 -0.000002 14.651398
										CHANNELS 3 Xrotation Yrotation Zrotation
										End Site
										{
											OFFSET 0.000000 -0.000000 0.100006
										}
									}
								}
							}
						}
					}
				}
				JOINT LeftShoulder
				{
					OFFSET 3.831360 0.533490 9.826309
					CHANNELS 3 Xrotation Yrotation Zrotation
					JOINT LeftArm
					{
						OFFSET 0.000000 -0.000002 12.888107
						CHANNELS 3 Xrotation Yrotation Zrotation
						JOINT LeftArmRoll
						{
							OFFSET 0.000000 -0.000001 6.506165
							CHANNELS 3 Xrotation Yrotation Zrotation
							JOINT LeftForeArm
							{
								OFFSET 0.000000 -0.000003 18.950104
								CHANNELS 3 Xrotation Yrotation Zrotation
								JOINT LeftForeArmRoll
								{
									OFFSET 0.000000 -0.000001 7.300919
									CHANNELS 3 Xrotation Yrotation Zrotation
									JOINT LeftHand
									{
										OFFSET 0.000000 -0.000002 14.651398
										CHANNELS 3 Xrotation Yrotation Zrotation
										End Site
										{
											OFFSET 0.000000 -0.000000 0.100006
										}
									}
								}
							}
						}
					}
				}
			}
		}
	}
	JOINT RightUpLeg
	{
		OFFSET -6.068371 0.933477 -1.112778
		CHANNELS 3 Xrotation Yrotation Zrotation
		JOINT RightUpLegRoll
		{
			OFFSET 0.000000 -0.000003 17.179596
			CHANNELS 3 Xrotation Yrotation Zrotation
			JOINT RightLeg
			{
				OFFSET 0.000000 0.000003 -21.274300
				CHANNELS 3 Xrotation Yrotation Zrotation
				JOINT RightLegRoll
				{
					OFFSET 0.000000 -0.000003 21.343903
					CHANNELS 3 Xrotation Yrotation Zrotation
					JOINT RightFoot
					{
						OFFSET 0.000000 -0.000003 17.765198
						CHANNELS 3 Xrotation Yrotation Zrotation
						JOINT RightToeBase
						{
							OFFSET 0.000000 -0.000002 14.850807
							CHANNELS 3 Xrotation Yrotation Zrotation
							End Site
							{
								OFFSET 0.006294 0.829003 7.192139
							}
						}
					}
				}
			}
		}
	}
	JOINT LeftUpLeg
	{
		OFFSET 6.068371 0.933477 -1.112778
		CHANNELS 3 Xrotation Yrotation Zrotation
		JOINT LeftUpLegRoll
		{
			OFFSET 0.000000 -0.000003 17.179703
			CHANNELS 3 Xrotation Yrotation Zrotation
			JOINT LeftLeg
			{
				OFFSET 0.000000 -0.000004 21.274200
				CHANNELS 3 Xrotation Yrotation Zrotation
				JOINT LeftLegRoll
				{
					OFFSET 0.000000 -0.000003 21.541199
					CHANNELS 3 Xrotation Yrotation Zrotation
					JOINT LeftFoot
					{
						OFFSET 0.000000 -0.000003 17.567902
						CHANNELS 3 Xrotation Yrotation Zrotation
						JOINT LeftToeBase
						{
							OFFSET 0.000000 -0.000003 14.850800
							CHANNELS 3 Xrotation Yrotation Zrotation
							End Site
							{
								OFFSET -0.028210 0.829004 7.192123
							}
						}
					}
				}
			}
		}
	}
}
MOTION
Frames: 12
Frame Time: 0.041667
52.469402 -5.305168 86.635895 2.981645 -0.577813 0.171578 -2.136324 -1.073534 0.878717 -0.259800 -2.153928 1.712755 1.385440 -2.133257 1.738431 -1.814033 15.540786 -2.736462 12.652137 -15.802373 -2.808867 -11.029576 -48.874750 -12.446132 122.681290 -20.064254 111.656586 0.000001 0.000018 -0.000005 12.113244 -22.728426 3.346495 -0.000001 -0.000001 -3.004711 -5.000124 -7.999608 0.000084 -19.383237 67.347605 22.853111 116.836383 20.204533 -123.581317 -0.000005 0.000017 0.000002 0.508588 20.777150 -0.253102 -0.000001 -0.000004 3.044581 -5.000202 7.999337 -0.000109 -19.249273 -179.254162 -2.664059 -179.999991 0.000005 -1.148996 156.898639 -3.829293 -1.165777 0.000001 -0.000000 0.616121 71.796210 7.603028 -0.055888 25.457920 -7.354749 0.000123 -15.725889 179.299255 2.752548 -0.000004 -0.000004 -0.954206 -23.994525 0.559951 1.090965 -0.000008 0.000003 -0.679464 75.556304 -6.095797 -4.072058 25.456938 7.345428 0.000004 
52.470005 -5.314904 86.698311 3.008842 -0.579010 0.175320 -2.136375 -1.072434 0.880371 -0.259315 -2.153698 1.717714 1.385931 -2.132966 1.743382 -1.839208 15.561071 -2.737214 12.633666 -15.790236 -2.823058 -11.063725 -48.910158 -12.491024 122.589656 -20.382073 111.752331 -0.000004 0.000017 -0.000006 12.049995 -22.691406 3.325554 -0.000004 0.000001 -3.004709 -5.000121 -7.999606 0.000082 -19.392490 67.344361 22.863606 116.869181 20.510269 -123.251037 -0.000000 0.000017 0.000003 0.872770 21.034773 -0.344622 -0.000001 -0.000004 3.033440 -5.000201 7.999331 -0.000114 -19.250478 -179.253219 -2.669644 -179.999991 0.000005 -1.147999 156.933377 -3.827525 -1.165293 0.000002 -0.000000 0.615259 71.800663 7.601688 -0.052908 25.457920 -7.354749 0.000123 -15.717266 179.304036 2.783919 -0.000003 -0.000005 -0.953881 -23.937298 0.531769 1.088243 -0.000008 0.000003 -0.678837 75.532870 -6.086470 -4.101740 25.456936 7.345427 0.000004 
52.467903 -5.321175 86.686203 3.035635 -0.579993 0.178591 -2.136382 -1.071345 0.882093 -0.258718 -2.153598 1.722877 1.386521 -2.132807 1.748551 -1.865564 15.581538 -2.737593 12.616144 -15.778237 -2.836941 -11.098170 -48.946020 -12.536322 122.499497 -20.697135 111.849682 0.000001 0.000019 -0.000003 11.984323 -22.654723 3.304306 -0.000003 0.000003 -3.004709 -5.000124 -7.999611 0.000082 -19.401253 67.340556 22.873540 116.905204 20.815654 -122.908243 -0.000000 0.000016 0.000003 1.249879 21.303486 -0.442914 -0.000004 -0.000005 3.022287 -5.000199 7.999330 -0.000113 -19.250174 -179.253219 -2.675670 -179.999991 0.000005 -1.147002 156.970656 -3.824895 -1.163237 0.000002 -0.000000 0.614356 71.805314 7.600271 -0.049851 25.457918 -7.354750 0.000123 -15.706853 179.307847 2.815868 -0.000004 -0.000005 -0.953518 -23.876876 0.502635 1.085443 -0.000009 0.000003 -0.678104 75.507509 -6.076659 -4.132758 25.456938 7.345428 0.000004 
52.471905 -5.329996 86.630402 3.062151 -0.580825 0.181534 -2.136384 -1.070266 0.883864 -0.258041 -2.153589 1.728193 1.387201 -2.132726 1.753864 -1.892737 15.602199 -2.737720 12.599261 -15.766394 -2.850603 -11.132828 -48.982162 -12.581912 122.410814 -21.010186 111.948665 0.000002 0.000018 -0.000003 11.916871 -22.618434 3.282871 -0.000002 0.000001 -3.004709 -5.000122 -7.999607 0.000086 -19.409682 67.336369 22.883101 116.942865 21.120965 -122.557240 -0.000002 0.000017 0.000002 1.636583 21.579803 -0.547400 0.000000 -0.000006 3.011141 -5.000201 7.999330 -0.000113 -19.248677 -179.253206 -2.682261 -179.999991 0.000005 -1.146005 157.009465 -3.821385 -1.161704 0.000002 -0.000000 0.613425 71.810048 7.598815 -0.046708 25.457922 -7.354749 0.000123 -15.695140 179.311645 2.848038 -0.000004 -0.000004 -0.953127 -23.814163 0.472834 1.082612 -0.000009 0.000003 -0.677297 75.480755 -6.066521 -4.164806 25.456935 7.345428 0.000004 
52.524303 -5.347866 86.657692 3.088489 -0.581570 0.184289 -2.136373 -1.069207 0.885660 -0.257320 -2.153629 1.733579 1.387911 -2.132705 1.759249 -1.920372 15.622751 -2.737686 12.582899 -15.754518 -2.864117 -11.167628 -49.018475 -12.627700 122.323224 -21.322457 112.048181 0.000004 0.000019 -0.000005 11.848510 -22.582362 3.261415 -0.000002 0.000000 -3.004710 -5.000126 -7.999610 0.000084 -19.418026 67.332094 22.892567 116.979844 21.427391 -122.200458 -0.000003 0.000016 0.000003 2.029509 21.860277 -0.657341 -0.000005 -0.000005 2.999990 -5.000196 7.999331 -0.000113 -19.246570 -179.254135 -2.688825 -179.999991 0.000005 -1.146005 157.049354 -3.817902 -1.160105 0.000002 0.000000 0.612479 71.814877 7.597325 -0.043477 25.457915 -7.354749 0.000123 -15.682727 179.315456 2.880337 -0.000004 -0.000004 -0.952721 -23.750055 0.442648 1.079794 -0.000010 0.000003 -0.676447 75.453168 -6.056187 -4.197370 25.456938 7.345428 0.000004 
52.519802 -5.354566 86.696091 3.114801 -0.582292 0.186997 -2.136353 -1.068137 0.887464 -0.256587 -2.153678 1.738997 1.388642 -2.132695 1.764667 -1.948138 15.643397 -2.737604 12.566542 -15.742736 -2.877598 -11.202501 -49.054781 -12.673568 122.236508 -21.634568 112.148298 0.000002 0.000018 -0.000005 11.779866 -22.546273 3.239970 -0.000001 0.000004 -3.004709 -5.000122 -7.999612 0.000083 -19.426199 67.327627 22.901850 117.014787 21.734657 -121.842570 0.000001 0.000016 0.000003 2.425204 22.141378 -0.771828 -0.000001 -0.000006 2.999991 -5.000200 7.999331 -0.000112 -19.244370 -179.254135 -2.695806 -179.999991 0.000005 -1.144994 157.089433 -3.815340 -1.157876 0.000002 -0.000001 0.611528 71.819712 7.595832 -0.040146 25.457913 -7.354749 0.000123 -15.670016 179.318311 2.912924 -0.000005 -0.000004 -0.952311 -23.685651 0.412362 1.077032 -0.000009 0.000003 -0.675587 75.425376 -6.045795 -4.230133 25.456935 7.345429 0.000004 
52.533905 -5.371046 86.690697 3.141185 -0.583053 0.189801 -2.136343 -1.067068 0.889253 -0.255877 -2.153699 1.744374 1.389353 -2.132655 1.770042 -1.975682 15.664043 -2.737573 12.549979 -15.730868 -2.891163 -11.237393 -49.090970 -12.719451 122.150680 -21.947309 112.248961 0.000003 0.000021 -0.000003 11.711793 -22.510003 3.218699 -0.000002 0.000002 -3.004708 -5.000122 -7.999611 0.000084 -19.434508 67.323344 22.911287 117.045796 22.043592 -121.486772 -0.000001 0.000016 0.000003 2.820184 22.419620 -0.889775 -0.000004 -0.000003 2.999991 -5.000202 7.999333 -0.000113 -19.242369 -179.255064 -2.702292 -179.999991 0.000005 -1.143997 157.129035 -3.811840 -1.156306 0.000002 -0.000000 0.610585 71.824541 7.594340 -0.037012 25.457920 -7.354749 0.000123 -15.657804 179.322122 2.945178 -0.000004 -0.000004 -0.951909 -23.621962 0.382260 1.074365 -0.000009 0.000003 -0.674747 75.398048 -6.035415 -4.262564 25.456940 7.345428 0.000004 
52.544403 -5.377534 86.705299 3.167773 -0.583917 0.192841 -2.136340 -1.065989 0.891010 -0.255223 -2.153659 1.749638 1.390003 -2.132553 1.775313 -2.002639 15.684587 -2.737686 12.532993 -15.718919 -2.904844 -11.272202 -49.126955 -12.765239 122.066040 -22.260879 112.350793 0.000003 0.000020 -0.000003 11.645055 -22.473588 3.197754 -0.000002 0.000000 -3.004710 -5.000119 -7.999615 0.000083 -19.443108 67.319348 22.921031 117.071409 22.353905 -121.137544 0.000001 0.000017 0.000003 3.210847 22.691649 -1.009922 -0.000003 -0.000007 2.999989 -5.000200 7.999329 -0.000111 -19.241268 -179.255064 -2.708727 -179.999991 0.000005 -1.143000 157.167407 -3.809222 -1.155197 0.000002 -0.000000 0.609663 71.829281 7.592883 -0.033770 25.457920 -7.354750 0.000123 -15.646389 179.325947 2.977273 -0.000003 -0.000004 -0.951526 -23.559877 0.352626 1.071827 -0.000010 0.000002 -0.673961 75.371718 -6.025262 -4.294269 25.456938 7.345427 0.000004 
52.530804 -5.389797 86.701195 3.194699 -0.584947 0.196259 -2.136368 -1.064900 0.892712 -0.254660 -2.153519 1.754740 1.390573 -2.132352 1.780410 -2.028676 15.705040 -2.738061 12.515166 -15.706821 -2.918788 -11.306885 -49.162544 -12.810824 121.981919 -22.576459 112.453027 0.000000 0.000019 -0.000007 11.580377 -22.436686 3.177197 -0.000003 0.000001 -3.004709 -5.000121 -7.999613 0.000080 -19.452022 67.315722 22.931132 117.089236 22.666768 -120.796636 -0.000000 0.000016 0.000003 3.593565 22.953978 -1.130835 -0.000001 -0.000003 2.999992 -5.000201 7.999331 -0.000111 -19.241370 -179.255064 -2.714517 -179.999991 0.000005 -1.142999 157.203880 -3.806545 -1.154232 0.000001 -0.000000 0.608772 71.833830 7.591502 -0.030802 25.457918 -7.354750 0.000123 -15.636475 179.329759 3.009121 -0.000005 -0.000004 -0.951174 -23.500401 0.323746 1.069452 -0.000011 0.000003 -0.673260 75.346952 -6.015455 -4.324829 25.456935 7.345428 0.000004 
52.547802 -5.398887 86.690002 3.222060 -0.586203 0.200197 -2.136418 -1.063790 0.894339 -0.254220 -2.153239 1.759618 1.391003 -2.132012 1.785287 -2.053427 15.725296 -2.738785 12.496303 -15.694588 -2.933040 -11.341359 -49.197651 -12.856113 121.898304 -22.894818 112.555288 0.000005 0.000020 -0.000004 11.518417 -22.399259 3.157133 -0.000002 0.000002 -3.004709 -5.000126 -7.999611 0.000080 -19.461355 67.312566 22.941716 117.097883 22.981971 -120.468322 0.000001 0.000017 0.000003 3.964606 23.203252 -1.250911 -0.000003 -0.000006 2.999990 -5.000199 7.999335 -0.000112 -19.243168 -179.254121 -2.719780 -179.999991 0.000005 -1.142003 157.237758 -3.803793 -1.152433 0.000002 -0.000000 0.607926 71.838290 7.590159 -0.027820 25.457918 -7.354749 0.000123 -15.628557 179.334540 3.040352 -0.000004 -0.000004 -0.950865 -23.444635 0.295903 1.067266 -0.000009 0.000003 -0.672676 75.324446 -6.006084 -4.353822 25.456938 7.345427 0.000004 
52.543903 -5.408545 86.704002 3.249988 -0.587749 0.204797 -2.136507 -1.062651 0.895872 -0.253938 -2.152780 1.764200 1.391283 -2.131492 1.789855 -2.076552 15.745468 -2.739976 12.476074 -15.682232 -2.947693 -11.375549 -49.232167 -12.901001 121.815386 -23.216199 112.658458 0.000001 0.000020 -0.000007 11.460127 -22.361139 3.137725 -0.000002 -0.000001 -3.004710 -5.000122 -7.999613 0.000081 -19.471353 67.310169 22.953039 117.095903 23.299213 -120.156961 -0.000003 0.000017 0.000003 4.320187 23.436256 -1.368402 -0.000000 -0.000003 2.999991 -5.000205 7.999334 -0.000111 -19.247277 -179.252277 -2.724271 -179.999991 0.000005 -1.141005 157.268275 -3.801880 -1.151261 0.000002 -0.000000 0.607136 71.842464 7.588925 -0.025202 25.457918 -7.354749 0.000123 -15.623134 179.341274 3.070602 -0.000004 -0.000004 -0.950610 -23.393478 0.269383 1.065297 -0.000010 0.000003 -0.672240 75.304611 -5.997412 -4.380757 25.456940 7.345428 0.000004 
52.553402 -5.415625 86.688004 3.278614 -0.589647 0.210200 -2.136646 -1.061482 0.897291 -0.253847 -2.152100 1.768427 1.391372 -2.130773 1.794072 -2.097693 15.765255 -2.741744 12.454170 -15.669579 -2.962874 -11.409359 -49.265816 -12.945363 121.732699 -23.541896 112.761362 -0.000001 0.000017 -0.000007 11.406027 -22.322195 3.119015 -0.000004 0.000001 -3.004710 -5.000122 -7.999606 0.000085 -19.482105 67.308605 22.965239 117.081108 23.619163 -119.864820 -0.000001 0.000017 0.000003 4.656442 23.649523 -1.481403 -0.000002 -0.000005 2.999990 -5.000203 7.999332 -0.000112 -19.253992 -179.249463 -2.727750 -179.999991 0.000005 -1.139994 157.294776 -3.800760 -1.150725 0.000002 -0.000000 0.606414 71.846446 7.587739 -0.022664 25.457918 -7.354749 0.000122 -15.620916 179.347995 3.100323 -0.000005 -0.000004 -0.950422 -23.347928 0.244473 1.063567 -0.000010 0.000003 -0.671985 75.288226 -5.989430 -4.405396 25.456936 7.345427 0.000004 
